<svg width="48" height="48" viewBox="0 0 48 48" fill="none" xmlns="http://www.w3.org/2000/svg">
<path d="M33.3589 23.3799H16.1759L22.7461 16.8194C22.8088 16.761 22.8591 16.6906 22.894 16.6125C22.9289 16.5343 22.9476 16.4499 22.9491 16.3643C22.9507 16.2787 22.9349 16.1937 22.9028 16.1144C22.8707 16.035 22.8229 15.9629 22.7623 15.9024C22.7017 15.8419 22.6295 15.7941 22.55 15.7621C22.4705 15.73 22.3854 15.7143 22.2997 15.7158C22.214 15.7173 22.1295 15.736 22.0512 15.7709C21.9729 15.8057 21.9024 15.8559 21.844 15.9186L14.1844 23.5669C14.1565 23.5961 14.1309 23.6273 14.1078 23.6604C14.0964 23.6774 14.0894 23.6944 14.0794 23.7114C14.0695 23.7284 14.0581 23.7496 14.0482 23.7709C14.0401 23.7926 14.0335 23.8148 14.0284 23.8374C14.0217 23.8544 14.0165 23.872 14.0128 23.8898C13.9957 23.9721 13.9957 24.0569 14.0128 24.1391C14.0166 24.1574 14.0219 24.1754 14.0284 24.1929C14.0355 24.2142 14.0397 24.2368 14.0482 24.2581C14.0567 24.2793 14.0695 24.2992 14.0808 24.319C14.0922 24.3388 14.0964 24.3516 14.1078 24.3686C14.1311 24.4032 14.1577 24.4354 14.1872 24.4649L21.8468 32.1132C21.9678 32.2258 22.1278 32.2871 22.2932 32.2842C22.4586 32.2813 22.6163 32.2144 22.7333 32.0976C22.8502 31.9808 22.9172 31.8233 22.9201 31.6582C22.9231 31.4931 22.8617 31.3332 22.7489 31.2124L16.1759 24.6547H33.3589C33.5281 24.6547 33.6905 24.5875 33.8102 24.468C33.9299 24.3485 33.9972 24.1863 33.9972 24.0173C33.9972 23.8483 33.9299 23.6862 33.8102 23.5666C33.6905 23.4471 33.5281 23.3799 33.3589 23.3799Z" fill="white"/>
</svg>
